<?xml version="1.0" encoding="UTF-8" standalone="no"?>
<!-- Created with Inkscape (http://www.inkscape.org/) -->

<svg
   width="88"
   height="31"
   viewBox="0 0 88 31"
   version="1.1"
   id="svg1"
   inkscape:version="1.4.2 (ebf0e940d0, 2025-05-08)"
   sodipodi:docname="ClyRail88x31.svg"
   xml:space="preserve"
   xmlns:inkscape="http://www.inkscape.org/namespaces/inkscape"
   xmlns:sodipodi="http://sodipodi.sourceforge.net/DTD/sodipodi-0.dtd"
   xmlns="http://www.w3.org/2000/svg"
   xmlns:svg="http://www.w3.org/2000/svg"><sodipodi:namedview
     id="namedview1"
     pagecolor="#ffffff"
     bordercolor="#000000"
     borderopacity="0.25"
     inkscape:showpageshadow="2"
     inkscape:pageopacity="0.0"
     inkscape:pagecheckerboard="0"
     inkscape:deskcolor="#d1d1d1"
     inkscape:document-units="px"
     showgrid="true"
     inkscape:zoom="12.976468"
     inkscape:cx="36.180877"
     inkscape:cy="6.9741627"
     inkscape:window-width="1916"
     inkscape:window-height="1028"
     inkscape:window-x="0"
     inkscape:window-y="0"
     inkscape:window-maximized="0"
     inkscape:current-layer="layer1"><inkscape:grid
       id="grid1"
       units="px"
       originx="0"
       originy="0"
       spacingx="1"
       spacingy="1"
       empcolor="#0099e5"
       empopacity="0.30196078"
       color="#0099e5"
       opacity="0.14901961"
       empspacing="4"
       dotted="false"
       gridanglex="30"
       gridanglez="30"
       visible="true" /></sodipodi:namedview><defs
     id="defs1" /><g
     inkscape:label="Layer 1"
     inkscape:groupmode="layer"
     id="layer1"><rect
       style="fill:#000000;stroke:none;fill-opacity:1"
       id="rect1"
       width="88"
       height="31"
       x="0"
       y="0" /><path
       style="fill:#000000;stroke-width:16;stroke-linecap:square;stroke-linejoin:round"
       d="M 14,14 V 12"
       id="path1" /><path
       style="fill:#000000;stroke-width:16;stroke-linecap:square;stroke-linejoin:round"
       d="M 15,15 H 13"
       id="path2" /><path
       style="font-weight:bold;font-size:10.6667px;font-family:B612;-inkscape-font-specification:'B612 Bold';fill:#f9f9f9;stroke-width:0.5"
       d="m 42.362636,17.860008 q -0.538668,0.432001 -1.141336,0.618669 -0.597336,0.181334 -1.290671,0.181334 -0.826669,0 -1.482672,-0.330668 -0.656002,-0.336001 -1.11467,-0.90667 -0.458668,-0.570668 -0.704002,-1.333337 -0.240001,-0.762669 -0.240001,-1.621339 0,-0.805336 0.218668,-1.530671 0.218667,-0.725336 0.666668,-1.269338 0.453335,-0.549335 1.141337,-0.869336 0.688003,-0.320001 1.626672,-0.320001 0.688002,0 1.312004,0.240001 0.629336,0.234668 1.09867,0.682669 l -0.789335,0.928003 q -0.176001,-0.117334 -0.368002,-0.224001 -0.192,-0.106667 -0.394667,-0.186667 -0.197334,-0.08 -0.394668,-0.128001 -0.197334,-0.048 -0.378668,-0.048 -0.506669,0 -0.864003,0.218668 -0.352001,0.213334 -0.576002,0.586668 -0.224001,0.368001 -0.330668,0.864003 -0.101333,0.490668 -0.101333,1.040003 0,0.325335 0.04267,0.672002 0.048,0.341335 0.138667,0.672002 0.096,0.325335 0.240001,0.613336 0.149333,0.288001 0.346667,0.506668 0.202668,0.218667 0.458668,0.346668 0.256001,0.128 0.576002,0.128 0.181334,0 0.357335,-0.02667 0.176,-0.032 0.368001,-0.096 0.197334,-0.06933 0.426668,-0.176 0.229334,-0.112001 0.517335,-0.272001 z m 0.986674,-6.645354 -0.112,-1.178671 1.856006,-0.1653336 v 6.5493536 q 0,0.229335 0.016,0.421335 0.016,0.192001 0.064,0.330668 0.05333,0.133334 0.149334,0.208 0.096,0.07467 0.256001,0.07467 0.07467,0 0.149334,-0.01067 0.08,-0.016 0.149333,-0.03733 0.07467,-0.02133 0.133334,-0.03733 0.05867,-0.02133 0.096,-0.03733 l 0.298667,1.05067 q -0.05867,0.032 -0.165334,0.08 -0.106667,0.04267 -0.250667,0.09067 -0.144001,0.04267 -0.325335,0.07467 -0.176,0.032 -0.373334,0.032 -0.592002,0 -0.97067,-0.170668 -0.378668,-0.176 -0.597335,-0.480001 -0.213334,-0.309335 -0.293334,-0.725336 -0.08,-0.421334 -0.08,-0.906669 z m 5.557355,3.781345 0.421335,2.560008 0.410668,-2.560008 0.858669,-2.266674 1.717339,-0.154667 -2.176007,5.952019 q -0.160001,0.442668 -0.362668,0.901336 -0.202667,0.464001 -0.469335,0.842669 -0.266667,0.378668 -0.613335,0.618669 -0.341334,0.240001 -0.789336,0.240001 -0.357334,0 -0.709335,-0.149334 -0.346668,-0.149334 -0.656002,-0.416001 l 0.656002,-0.960003 q 0.122667,0.08 0.261334,0.144 0.138667,0.06933 0.282667,0.06933 0.229334,0 0.410668,-0.266668 0.186668,-0.266668 0.384002,-0.730669 l -2.224007,-6.080019 1.722672,-0.149334 z m 6.133346,0.565335 Q 54.981344,15.486667 54.906677,15.476 54.83201,15.46 54.789343,15.46 v 3.109344 h -1.877339 v -6.730688 l -0.202667,-1.173337 q 0.240001,-0.02667 0.544002,-0.05333 0.304,-0.032 0.618668,-0.05333 0.314668,-0.02133 0.613335,-0.032 0.304001,-0.016 0.538669,-0.016 0.730669,0 1.328004,0.149334 0.602669,0.144001 1.029337,0.437335 0.432001,0.288001 0.666668,0.720002 0.240001,0.426668 0.240001,0.98667 0,0.576002 -0.181334,0.992003 -0.176,0.410668 -0.480001,0.704002 -0.304001,0.288001 -0.704003,0.474669 -0.394667,0.186667 -0.826669,0.304001 l 0.746669,0.176 2.325341,3.114677 h -1.962673 z m -0.250668,-3.018676 v 1.749339 h 0.341335 q 0.357334,0 0.618668,-0.112001 0.266668,-0.117333 0.437335,-0.309334 0.176001,-0.192001 0.261334,-0.448001 0.08533,-0.256001 0.08533,-0.538669 0,-0.373334 -0.128001,-0.618668 -0.122667,-0.245334 -0.320001,-0.389335 -0.197334,-0.149334 -0.448001,-0.208001 -0.245334,-0.05867 -0.485335,-0.05867 h -0.282667 q -0.04267,0 -0.08533,0.0053 -0.03733,0 -0.08533,0.0053 z m 9.594692,6.026686 h -1.808006 v -0.864003 l -0.640002,0.928003 q -0.04267,0.01067 -0.101334,0.016 -0.05867,0.01067 -0.170667,0.01067 -0.458668,0 -0.869336,-0.128001 -0.410668,-0.133334 -0.720002,-0.384001 -0.309335,-0.256001 -0.496002,-0.629335 -0.181334,-0.373335 -0.181334,-0.85867 0,-0.341334 0.101334,-0.618668 0.101334,-0.277335 0.277334,-0.496002 0.181334,-0.218667 0.416001,-0.378668 0.234668,-0.16 0.501335,-0.261334 0.272001,-0.106667 0.554669,-0.154667 0.288001,-0.05333 0.560002,-0.05333 0.24,0 0.426668,0.016 0.192,0.016 0.336001,0.04267 -0.0053,-0.213334 -0.032,-0.389334 -0.02667,-0.181334 -0.096,-0.314668 -0.06933,-0.133334 -0.186667,-0.208001 -0.117334,-0.07467 -0.298668,-0.07467 -0.453334,0 -0.869336,0.106667 -0.416001,0.101334 -0.752002,0.224001 l -0.554668,-0.98667 q 0.416001,-0.186667 0.816002,-0.298667 0.256001,-0.07467 0.602669,-0.138667 0.352001,-0.064 0.805336,-0.064 0.693335,0 1.13067,0.170668 0.442668,0.165333 0.688002,0.474668 0.250667,0.304001 0.341334,0.736002 0.096,0.426668 0.096,0.944003 v 2.538675 z m -1.808006,-2.746676 q -0.128,-0.016 -0.282668,-0.02667 -0.149333,-0.016 -0.288,-0.016 -0.192001,0 -0.378668,0.05333 -0.181334,0.05333 -0.325335,0.16 -0.144,0.106667 -0.234667,0.272001 -0.09067,0.165334 -0.09067,0.389335 0,0.181334 0.05867,0.336001 0.05867,0.154667 0.154667,0.272001 0.096,0.112 0.213334,0.176 0.122667,0.064 0.245334,0.064 0.154667,0 0.293334,-0.048 0.144001,-0.048 0.261334,-0.117333 0.122668,-0.07467 0.213334,-0.160001 0.096,-0.08533 0.160001,-0.154667 z m 4.57601,2.746676 h -1.685338 v -5.594685 l 1.685338,-0.170667 z m -1.717338,-8.000026 h 1.749339 v 1.232004 h -1.749339 z m 3.248003,0.645336 -0.112001,-1.178671 1.856006,-0.1653336 v 6.5493536 q 0,0.229335 0.016,0.421335 0.016,0.192001 0.064,0.330668 0.05333,0.133334 0.149334,0.208 0.096,0.07467 0.256001,0.07467 0.07467,0 0.149334,-0.01067 0.08,-0.016 0.149334,-0.03733 0.07467,-0.02133 0.133333,-0.03733 0.05867,-0.02133 0.096,-0.03733 l 0.298667,1.05067 q -0.05867,0.032 -0.165334,0.08 -0.106667,0.04267 -0.250667,0.09067 -0.144001,0.04267 -0.325334,0.07467 -0.176001,0.032 -0.373335,0.032 -0.592002,0 -0.97067,-0.170668 -0.378668,-0.176 -0.597335,-0.480001 -0.213334,-0.309335 -0.293334,-0.725336 -0.08,-0.421334 -0.08,-0.906669 z"
       id="text1"
       aria-label="ClyRail" /><path
       style="fill:#ffcd00;fill-opacity:1;stroke:none;stroke-width:2"
       d="m 16.261285,6 h 12 v 8 h -4 v -4 h -4 v 12 h 4 v -4 h 4 v 8 h -12 z"
       id="path3" /><path
       style="fill:#ffffff;fill-opacity:0.5;stroke:none;stroke-width:0.433013;stroke-linecap:square;stroke-opacity:1;paint-order:markers stroke fill"
       d="M 0,0 3,3 H 85 L 88,0 Z"
       id="path1-6"
       sodipodi:nodetypes="ccccc" /><path
       style="fill:#404040;fill-opacity:0.50196099;stroke:none;stroke-width:0.433013;stroke-linecap:square;stroke-opacity:1;paint-order:markers stroke fill"
       d="m 88,0 -3,3 v 25 l 3,3 z"
       id="path2-2"
       sodipodi:nodetypes="ccccc" /><path
       style="fill:#404040;fill-opacity:0.50196099;stroke:none;stroke-width:0.433013;stroke-linecap:square;stroke-opacity:1;paint-order:markers stroke fill"
       d="M 88,31 85,28 H 3 l -3,3 z"
       id="path3-9"
       sodipodi:nodetypes="ccccc" /><path
       style="fill:#ffffff;fill-opacity:0.501961;stroke:none;stroke-width:0.433013;stroke-linecap:square;stroke-opacity:1;paint-order:markers stroke fill"
       d="M 0,31 V 0 l 3,3 v 25 z"
       id="path4"
       sodipodi:nodetypes="ccccc" /></g></svg>
